<svg width="160" height="160" viewBox="0 0 160 160" fill="none" xmlns="http://www.w3.org/2000/svg">
<path d="M46.571 80.0001L46.6237 99.3413L63.0579 109.012V120.335L37.0059 105.056V74.3442L46.571 80.0001ZM46.571 60.6589V71.9295L37 66.2678V54.9972L46.571 49.3354L56.1888 54.9972L46.571 60.6589ZM69.9211 54.9972L79.4921 49.3354L89.1099 54.9972L79.4921 60.6589L69.9211 54.9972Z" fill="#D8D8D8"/>
<path d="M53.4868 95.3324V84.009L63.0578 89.6707V100.941L53.4868 95.3324ZM69.921 113.068L79.492 118.729L89.1098 113.068V124.338L79.492 130L69.921 124.338V113.068ZM102.836 54.9972L112.407 49.3354L122.025 54.9972V66.2678L112.407 71.9295V60.6589L102.836 54.9972ZM112.407 99.3413L112.46 80.0001L122.031 74.3384V105.05L95.9789 120.329V109.006L112.407 99.3413Z" fill="#D8D8D8"/>
<path d="M105.544 95.3327L95.9731 100.942V89.671L105.544 84.0093V95.3327Z" fill="#D8D8D8"/>
<path d="M105.544 64.6677L105.597 75.9911L89.1157 85.6617V105.05L79.5447 110.659L69.9737 105.05V85.6617L53.4927 75.9911V64.6677L63.1047 59.006L79.4861 68.7235L95.9672 59.006L105.585 64.6677H105.544ZM53.4868 45.3323L79.492 30L105.544 45.3323L95.973 50.994L79.492 41.2765L63.0578 50.994L53.4868 45.3323Z" fill="#D8D8D8"/>
</svg>
