<svg width="40" height="40" viewBox="0 0 40 40" fill="none" xmlns="http://www.w3.org/2000/svg">
<path d="M17.4992 22.5001L34.9992 5.00004M17.7119 23.0468L22.0921 34.3101C22.4779 35.3025 22.6709 35.7985 22.9489 35.9433C23.1899 36.069 23.4771 36.0691 23.7181 35.9438C23.9962 35.7993 24.1899 35.3035 24.5769 34.3116L35.5607 6.16537C35.9102 5.27007 36.0849 4.82242 35.9892 4.53637C35.9062 4.28796 35.7114 4.09301 35.4629 4.01002C35.1769 3.91447 34.7292 4.08916 33.8339 4.43854L5.68771 15.4224C4.69591 15.8095 4.20003 16.003 4.05551 16.2812C3.93023 16.5223 3.9304 16.8095 4.05596 17.0505C4.2008 17.3285 4.69693 17.5213 5.68916 17.9073L16.9526 22.2875C17.1539 22.3658 17.2546 22.405 17.3394 22.4655C17.4146 22.519 17.4802 22.5848 17.5339 22.66C17.5944 22.7446 17.6336 22.8455 17.7119 23.0468Z" stroke="white" stroke-width="2" stroke-linecap="round" stroke-linejoin="round"/>
</svg>
