<svg width="40" height="40" viewBox="0 0 40 40" fill="none" xmlns="http://www.w3.org/2000/svg">
<path d="M23.7492 3.33325H14.1566C13.8575 3.33325 13.7079 3.33325 13.5759 3.3788C13.4591 3.41907 13.3527 3.4848 13.2645 3.57124C13.1647 3.66897 13.0978 3.80275 12.964 4.0703L5.96402 18.0703C5.64455 18.7093 5.48482 19.0288 5.52319 19.2884C5.55669 19.5151 5.68212 19.7181 5.86995 19.8494C6.08507 19.9999 6.44224 19.9999 7.15659 19.9999H17.4992L12.4992 36.6666L32.821 15.5921C33.5067 14.8811 33.8495 14.5256 33.8695 14.2214C33.8868 13.9574 33.7778 13.7007 33.5757 13.53C33.3428 13.3333 32.849 13.3333 31.8612 13.3333H19.9992L23.7492 3.33325Z" stroke="white" stroke-width="2" stroke-linecap="round" stroke-linejoin="round"/>
</svg>
