<svg width="40" height="40" viewBox="0 0 40 40" fill="none" xmlns="http://www.w3.org/2000/svg">
<path d="M19.9999 29.1666H20.0166M13.6666 36.6666H26.3333C28.2001 36.6666 29.1336 36.6666 29.8466 36.3033C30.4738 35.9838 30.9838 35.4738 31.3033 34.8466C31.6666 34.1336 31.6666 33.2001 31.6666 31.3333V8.66658C31.6666 6.79973 31.6666 5.86632 31.3033 5.15329C30.9838 4.52607 30.4738 4.01614 29.8466 3.69657C29.1336 3.33325 28.2001 3.33325 26.3333 3.33325H13.6666C11.7998 3.33325 10.8663 3.33325 10.1533 3.69657C9.52607 4.01614 9.01614 4.52607 8.69657 5.15329C8.33325 5.86632 8.33325 6.79975 8.33325 8.66658V31.3333C8.33325 33.2001 8.33325 34.1336 8.69657 34.8466C9.01614 35.4738 9.52607 35.9838 10.1533 36.3033C10.8663 36.6666 11.7997 36.6666 13.6666 36.6666ZM20.8333 29.1666C20.8333 29.6268 20.4601 29.9999 19.9999 29.9999C19.5398 29.9999 19.1666 29.6268 19.1666 29.1666C19.1666 28.7064 19.5398 28.3333 19.9999 28.3333C20.4601 28.3333 20.8333 28.7064 20.8333 29.1666Z" stroke="white" stroke-width="2" stroke-linecap="round" stroke-linejoin="round"/>
</svg>
