<svg width="160" height="160" viewBox="0 0 160 160" fill="none" xmlns="http://www.w3.org/2000/svg">
<path fill-rule="evenodd" clip-rule="evenodd" d="M67.5 80L93.5 106.5L110 90C113 87 117.5 87 120 90C123 93 123 98 120 101L98.5 123C95.5 126 91 126 88 123L57 91V110C57 114 53.5 117.5 49.5 117.5C45.5 117.5 42 114 42 110V50C42 46 45.5 42.5 49.5 42.5C53.5 42.5 57 46 57 50V69L88 37C91 34 95.5 34 98.5 37L120 59C123 62 123 67 120 70C117 73 112.5 73 110 70L93.5 53L67.5 80ZM93.5 72.5C97.5 72.5 101 76 101 80C101 84 97.5 87.5 93.5 87.5C89.5 87.5 86 84 86 80C86 76 89.5 72.5 93.5 72.5Z" fill="#D8D8D8"/>
</svg>
