<svg width="40" height="40" viewBox="0 0 40 40" fill="none" xmlns="http://www.w3.org/2000/svg">
<path d="M27.6746 17.6622C27.9598 17.383 28.1025 17.0506 28.1025 16.6651C28.1025 16.2798 27.9607 15.9444 27.6771 15.6588C27.3934 15.3736 27.0575 15.2309 26.6691 15.2309C26.2811 15.2309 25.948 15.3727 25.67 15.6563C25.3916 15.9399 25.2525 16.2759 25.2525 16.6642C25.2525 17.0523 25.392 17.3854 25.6712 17.6634C25.9504 17.9417 26.2827 18.0809 26.6683 18.0809C27.0536 18.0809 27.389 17.9413 27.6746 17.6622ZM13.3937 14.1172H21.6283V12.1217H13.3937V14.1172ZM8.1533 34.1063C7.27969 31.0819 6.40691 28.0688 5.53497 25.0672C4.66302 22.0655 4.22705 18.9849 4.22705 15.8255C4.22705 13.5247 5.02997 11.5683 6.6358 9.95633C8.24163 8.34439 10.1964 7.53841 12.5 7.53841H21.2933C22.0466 6.54563 22.9539 5.74188 24.015 5.12716C25.0764 4.51244 26.238 4.20508 27.5 4.20508C27.9461 4.20508 28.329 4.36397 28.6487 4.68174C28.9684 4.99952 29.1283 5.3823 29.1283 5.83008C29.1283 5.94702 29.1091 6.05994 29.0708 6.16883C29.0325 6.27772 29.0034 6.3773 28.9837 6.46758C28.8162 6.87869 28.6798 7.29661 28.5746 7.72133C28.4693 8.14605 28.3825 8.57786 28.3141 9.01675L32.6691 13.3717H35.795V23.4763L31.2462 24.9672L28.5021 34.1063H20.8937V30.773H15.795V34.1063H8.1533ZM9.66122 32.1113H13.7996V28.778H22.8887V32.1113H27.0158L29.6245 23.4497L33.7996 22.0301V15.3672H31.8446L26.2996 9.8155C26.3018 9.19327 26.3602 8.5848 26.475 7.99008C26.5897 7.39536 26.7401 6.80036 26.9262 6.20508C25.9798 6.45841 25.1139 6.86105 24.3283 7.41299C23.5425 7.96466 22.9287 8.67161 22.4871 9.53383H12.5054C10.7507 9.53383 9.26483 10.1456 8.04788 11.3692C6.83066 12.5929 6.22205 14.0798 6.22205 15.8301C6.22205 18.6387 6.60941 21.3806 7.38413 24.0559C8.15886 26.7312 8.91788 29.4163 9.66122 32.1113Z" fill="white"/>
</svg>
