<svg width="40" height="40" viewBox="0 0 40 40" fill="none" xmlns="http://www.w3.org/2000/svg">
<circle cx="20" cy="20" r="19" stroke="white" stroke-width="2"/>
<path d="M13.848 12.108C15.584 11.5107 17.488 11.212 19.56 11.212C21.632 11.212 23.1347 11.6133 24.068 12.416C25.02 13.2 25.496 14.4507 25.496 16.168C25.496 16.9147 25.3467 17.5867 25.048 18.184C24.768 18.7813 24.4787 19.22 24.18 19.5C23.8813 19.7613 23.508 20.0413 23.06 20.34C24.0493 20.8067 24.7587 21.32 25.188 21.88C25.636 22.4213 25.86 23.308 25.86 24.54C25.86 26.5 25.3653 27.956 24.376 28.908C23.4053 29.8413 21.8467 30.308 19.7 30.308C18.86 30.308 17.936 30.2333 16.928 30.084C15.92 29.9533 15.1173 29.8133 14.52 29.664L13.652 29.44L13.848 27.032C15.9013 27.4053 17.712 27.592 19.28 27.592C21.52 27.5733 22.64 26.584 22.64 24.624C22.64 23.728 22.3507 23.0467 21.772 22.58C21.1933 22.1133 20.428 21.8707 19.476 21.852H15.752V19.248H19.476C20.1667 19.248 20.8013 18.968 21.38 18.408C21.9773 17.8293 22.276 17.1387 22.276 16.336C22.276 15.5147 22.0147 14.908 21.492 14.516C20.988 14.124 20.288 13.928 19.392 13.928C17.9173 13.928 16.396 14.0587 14.828 14.32L14.1 14.46L13.848 12.108Z" fill="white"/>
</svg>
