<svg width="40" height="40" viewBox="0 0 40 40" fill="none" xmlns="http://www.w3.org/2000/svg">
<circle cx="20" cy="20" r="19" stroke="white" stroke-width="2"/>
<path d="M25.776 30H13.876V27.34L18.44 22.636C19.8213 21.2173 20.792 20.1067 21.352 19.304C21.912 18.5013 22.192 17.624 22.192 16.672C22.192 15.7013 21.9213 15.0107 21.38 14.6C20.8387 14.1893 19.952 13.984 18.72 13.984C17.5627 13.984 16.284 14.1147 14.884 14.376L14.184 14.488L13.988 12.024C15.7987 11.4827 17.6747 11.212 19.616 11.212C23.48 11.212 25.412 12.9293 25.412 16.364C25.412 17.708 25.1133 18.8747 24.516 19.864C23.9373 20.8533 22.892 22.048 21.38 23.448L17.432 27.284H25.776V30Z" fill="white"/>
</svg>
