<svg width="160" height="160" viewBox="0 0 160 160" fill="none" xmlns="http://www.w3.org/2000/svg">
<path d="M79.9999 75.2829C92.5045 75.2829 102.641 65.146 102.641 52.6415C102.641 40.1369 92.5045 30 79.9999 30C67.4953 30 57.3584 40.1369 57.3584 52.6415C57.3584 65.146 67.4953 75.2829 79.9999 75.2829Z" fill="#D8D8D8"/>
<path d="M79.9999 130C92.5045 130 102.641 119.863 102.641 107.359C102.641 94.8542 92.5045 84.7173 79.9999 84.7173C67.4953 84.7173 57.3584 94.8542 57.3584 107.359C57.3584 119.863 67.4953 130 79.9999 130Z" fill="#D8D8D8"/>
<path d="M107.358 102.641C119.863 102.641 130 92.5044 130 79.9999C130 67.4953 119.863 57.3584 107.358 57.3584C94.8537 57.3584 84.7168 67.4953 84.7168 79.9999C84.7168 92.5044 94.8537 102.641 107.358 102.641Z" fill="#D8D8D8"/>
<path d="M52.6415 102.641C65.1461 102.641 75.283 92.5044 75.283 79.9999C75.283 67.4953 65.1461 57.3584 52.6415 57.3584C40.1369 57.3584 30 67.4953 30 79.9999C30 92.5044 40.1369 102.641 52.6415 102.641Z" fill="#D8D8D8"/>
<path d="M74.67 74.6704C70.6343 73.6892 66.9463 71.6167 64.0095 68.68C61.0728 65.7432 59.0003 62.0552 58.019 58.0195C62.0476 59.0157 65.7276 61.0931 68.662 64.0275C71.5964 66.9619 73.6738 70.6419 74.67 74.6704Z" fill="#151326"/>
<path d="M57.9717 102.029C58.953 97.9932 61.0254 94.3052 63.9622 91.3684C66.899 88.4316 70.587 86.3592 74.6226 85.3779C73.6264 89.4064 71.549 93.0864 68.6146 96.0208C65.6802 98.9552 62.0002 101.033 57.9717 102.029Z" fill="#151326"/>
<path d="M85.3301 85.3296C89.3657 86.3109 93.0537 88.3833 95.9905 91.3201C98.9273 94.2569 101 97.9449 101.981 101.981C97.9525 100.984 94.2725 98.9069 91.3381 95.9725C88.4037 93.0381 86.3263 89.3581 85.3301 85.3296Z" fill="#151326"/>
<path d="M102.028 57.9712C101.047 62.0068 98.9747 65.6948 96.0379 68.6316C93.1011 71.5684 89.4131 73.6408 85.3774 74.6221C86.3737 70.5936 88.4511 66.9136 91.3855 63.9792C94.3199 61.0448 97.9999 58.9674 102.028 57.9712Z" fill="#151326"/>
</svg>
