<svg width="40" height="40" viewBox="0 0 40 40" fill="none" xmlns="http://www.w3.org/2000/svg">
<g clip-path="url(#clip0_148_577)">
<path d="M34.9216 16.0804C35.5457 11.8773 32.3689 9.61799 28.0248 8.11081L29.434 2.41739L25.9933 1.5538L24.6214 7.09733C23.7168 6.87008 22.7879 6.65596 21.8647 6.4437L23.2465 0.863585L19.8079 0L18.3978 5.69157C17.6493 5.5199 16.9141 5.35024 16.2008 5.17147L16.2048 5.15357L11.4599 3.96008L10.5446 7.66173C10.5446 7.66173 13.0974 8.25114 13.0436 8.28742C14.4369 8.6377 14.6889 9.56674 14.647 10.3031L13.0417 16.7893C13.1377 16.8138 13.2621 16.8493 13.3995 16.9049C13.2847 16.8762 13.1625 16.8448 13.0358 16.8143L10.7857 25.9004C10.6154 26.3268 10.1832 26.9667 9.20907 26.7237C9.24356 26.7741 6.70828 26.0951 6.70828 26.0951L5 30.0623L9.47759 31.1866C10.3106 31.397 11.1269 31.6172 11.9307 31.8242L10.5069 37.5829L13.9437 38.4465L15.3537 32.7489C16.2926 33.0056 17.2038 33.2425 18.0957 33.4657L16.6905 39.1364L20.1314 40L21.5551 34.2521C27.4223 35.3705 31.834 34.9196 33.6909 29.5742C35.1872 25.2704 33.6164 22.788 30.5297 21.1693C32.7779 20.647 34.4713 19.1576 34.9228 16.0808L34.9218 16.0801L34.9216 16.0804ZM27.0603 27.1841C25.9969 31.4878 18.8031 29.1613 16.4707 28.578L18.3601 20.9486C20.6923 21.5351 28.1716 22.6957 27.0604 27.1841H27.0603ZM28.1244 16.018C27.1544 19.9327 21.1668 17.9439 19.2245 17.4562L20.9376 10.5368C22.8799 11.0245 29.1349 11.9347 28.1247 16.018H28.1244Z" fill="white"/>
</g>
<defs>
<clipPath id="clip0_148_577">
<rect width="40" height="40" fill="white"/>
</clipPath>
</defs>
</svg>
