<svg width="239" height="580" viewBox="0 0 239 580" fill="none" xmlns="http://www.w3.org/2000/svg">
<path fill-rule="evenodd" clip-rule="evenodd" d="M104.569 290C104.569 388.398 109.661 485.212 119.507 580C129.35 485.212 134.445 388.398 134.445 290C134.445 191.599 129.35 94.7879 119.507 0C109.661 94.7879 104.569 191.599 104.569 290Z" fill="white"/>
<path fill-rule="evenodd" clip-rule="evenodd" d="M46.2593 330.979C45.5042 321.004 44.6314 311.012 43.587 300.995C38.5213 252.52 30.1792 205.178 18.8089 159.153C17.1962 206.521 18.8217 254.562 23.8848 303.036C25.8942 322.245 28.4232 341.279 31.4411 360.124C22.2184 329.892 11.7159 300.363 0 271.581C5.2244 318.692 13.7508 366.002 25.7431 413.252C37.7329 460.503 52.8046 506.165 70.6843 550.092C66.6194 513.436 60.5528 476.654 52.4154 439.879C50.3447 430.534 49.2337 421.009 49.2517 411.443C49.2542 410.624 49.2542 409.806 49.2517 408.988C49.226 394.665 50.7388 380.393 53.3216 366.305C61.6484 320.9 68.0375 275.78 72.5582 231.116C62.8489 263.741 54.1279 297.092 46.2593 330.979Z" fill="white"/>
<path fill-rule="evenodd" clip-rule="evenodd" d="M205.438 360.122C208.459 341.278 210.988 322.247 212.995 303.036C218.061 254.561 219.684 206.524 218.071 159.153C206.703 205.177 198.361 252.522 193.296 300.996C192.249 311.011 191.378 321.003 190.626 330.977C182.754 297.091 174.036 263.743 164.322 231.119C168.845 275.781 175.234 320.899 183.558 366.301C186.141 380.392 187.654 394.663 187.629 408.983C187.626 409.804 187.626 410.623 187.629 411.443C187.646 421.01 186.535 430.536 184.467 439.877C176.327 476.653 170.263 513.436 166.198 550.092C184.075 506.166 199.15 460.501 211.142 413.253C223.132 366.003 231.655 318.691 236.88 271.581C225.167 300.362 214.664 329.891 205.438 360.122Z" fill="white"/>
</svg>
